<svg width="21" height="21" viewBox="0 0 21 21" fill="none" xmlns="http://www.w3.org/2000/svg">
<path d="M2.10315 6.1782L10.5 10.3761L18.8968 6.1782C18.8658 5.64316 18.6313 5.14026 18.2415 4.77249C17.8516 4.40471 17.3359 4.1999 16.8 4.2H4.2C3.66406 4.1999 3.14837 4.40471 2.75854 4.77249C2.3687 5.14026 2.13423 5.64316 2.10315 6.1782V6.1782Z" fill="#33AFAA"/>
<path d="M18.9 8.5239L10.5 12.7239L2.09998 8.5239V14.7C2.09998 15.257 2.32122 15.7911 2.71505 16.1849C3.10888 16.5788 3.64302 16.8 4.19998 16.8H16.8C17.3569 16.8 17.8911 16.5788 18.2849 16.1849C18.6787 15.7911 18.9 15.257 18.9 14.7V8.5239Z" fill="#33AFAA"/>
</svg>
